<?xml version="1.0" ?><svg id="Layer_1_1_" style="enable-background:new 0 0 64 64;" version="1.1" viewBox="0 0 64 64" xml:space="preserve" xmlns="http://www.w3.org/2000/svg" xmlns:xlink="http://www.w3.org/1999/xlink" fill="rgb(2, 139, 207)"><g><g><circle cx="20" cy="14" r="1"/><circle cx="24" cy="14" r="1"/><circle cx="28" cy="14" r="1"/><circle cx="32" cy="14" r="1"/></g><g><circle cx="38" cy="48" r="1"/></g><g><path d="M27,59h10c0.552,0,1-0.447,1-1s-0.448-1-1-1H27c-0.552,0-1,0.447-1,1S26.448,59,27,59z"/><path d="M49,20c0.552,0,1-0.447,1-1V6c0-2.757-2.243-5-5-5H19c-2.757,0-5,2.243-5,5v22H2c-0.308,0-0.599,0.142-0.788,0.385    c-0.189,0.242-0.257,0.559-0.182,0.857l2.315,9.259C2.536,39.039,2,39.958,2,41c0,1.654,1.346,3,3,3c1.302,0,2.402-0.839,2.816-2    H14v16c0,2.757,2.243,5,5,5h26c2.757,0,5-2.243,5-5V45c0-0.553-0.448-1-1-1s-1,0.447-1,1v8H16V42h1.184    c0.414,1.161,1.514,2,2.816,2c1.654,0,3-1.346,3-3c0-0.842-0.351-1.602-0.912-2.147L26.844,23H31c0.552,0,1-0.447,1-1    s-0.448-1-1-1h-4.9c-0.441,0-0.831,0.29-0.958,0.713L23.256,28H16V11h32v8C48,19.553,48.448,20,49,20z M10.781,40l-2.5-10h2.938    l2.5,10H10.781z M6.219,30l2.5,10H7.816c-0.383-1.073-1.354-1.857-2.527-1.971L3.281,30H6.219z M5,42c-0.551,0-1-0.448-1-1    s0.449-1,1-1s1,0.448,1,1S5.551,42,5,42z M48,55v3c0,1.654-1.346,3-3,3H19c-1.654,0-3-1.346-3-3v-3H48z M20,42    c-0.551,0-1-0.448-1-1s0.449-1,1-1s1,0.448,1,1S20.551,42,20,42z M20.27,37.954L18.281,30h4.375L20.27,37.954z M16.219,30    l2.126,8.502c-0.536,0.356-0.941,0.883-1.161,1.498h-1.404l-2.5-10H16.219z M16,9V6c0-1.654,1.346-3,3-3h26c1.654,0,3,1.346,3,3v3    H16z"/><circle cx="26" cy="48" r="1"/><circle cx="30" cy="48" r="1"/><circle cx="34" cy="48" r="1"/><path d="M34,18c0-0.553-0.448-1-1-1H19c-0.552,0-1,0.447-1,1s0.448,1,1,1h14C33.552,19,34,18.553,34,18z"/><path d="M30,43h-4c-0.552,0-1,0.447-1,1s0.448,1,1,1h4c0.552,0,1-0.447,1-1S30.552,43,30,43z"/><path d="M39,44c0-0.553-0.448-1-1-1h-4c-0.552,0-1,0.447-1,1s0.448,1,1,1h4C38.552,45,39,44.553,39,44z"/></g><g><path d="M51,46h-4c-0.489,0-0.906-0.354-0.986-0.836l-0.27-1.619c-0.905-0.255-1.776-0.617-2.603-1.081    l-1.339,0.956c-0.397,0.282-0.943,0.238-1.288-0.106l-2.828-2.828c-0.346-0.346-0.391-0.891-0.106-1.288l0.956-1.339    c-0.464-0.826-0.826-1.697-1.081-2.603l-1.619-0.27C35.354,34.906,35,34.489,35,34v-4c0-0.489,0.354-0.906,0.836-0.986l1.619-0.27    c0.255-0.905,0.617-1.776,1.081-2.603l-0.956-1.339c-0.284-0.397-0.239-0.942,0.106-1.288l2.828-2.828    c0.345-0.347,0.891-0.391,1.288-0.106l1.339,0.956c0.826-0.464,1.697-0.826,2.603-1.081l0.27-1.619C46.094,18.354,46.511,18,47,18    h4c0.489,0,0.906,0.354,0.986,0.836l0.27,1.619c0.905,0.255,1.776,0.617,2.603,1.081l1.339-0.956    c0.396-0.284,0.942-0.24,1.288,0.106l2.828,2.828c0.346,0.346,0.391,0.891,0.106,1.288l-0.956,1.339    c0.464,0.826,0.826,1.697,1.081,2.603l1.619,0.27C62.646,29.094,63,29.511,63,30v4c0,0.489-0.354,0.906-0.836,0.986l-1.619,0.27    c-0.255,0.905-0.617,1.776-1.081,2.603l0.956,1.339c0.284,0.397,0.239,0.942-0.106,1.288l-2.828,2.828    c-0.346,0.345-0.892,0.389-1.288,0.106l-1.339-0.956c-0.826,0.464-1.697,0.826-2.603,1.081l-0.27,1.619    C51.906,45.646,51.489,46,51,46z M62,34h0.01H62z" style="fill:#00F4CB;"/></g><g><circle cx="57" cy="32" r="1"/></g><g><circle cx="41" cy="32" r="1"/></g><path d="M49,31c-1.103,0-2-0.897-2-2s0.897-2,2-2s2,0.897,2,2c0,0.553,0.448,1,1,1s1-0.447,1-1c0-1.859-1.28-3.411-3-3.858V24   c0-0.553-0.448-1-1-1s-1,0.447-1,1v1.142c-1.72,0.447-3,1.999-3,3.858c0,2.206,1.794,4,4,4c1.103,0,2,0.897,2,2s-0.897,2-2,2   s-2-0.897-2-2c0-0.553-0.448-1-1-1s-1,0.447-1,1c0,1.859,1.28,3.411,3,3.858V40c0,0.553,0.448,1,1,1s1-0.447,1-1v-1.142   c1.72-0.447,3-1.999,3-3.858C53,32.794,51.206,31,49,31z"/></g></svg>