<?xml version="1.0" ?><svg viewBox="0 0 64 64" xmlns="http://www.w3.org/2000/svg"><g id="Focus_money" fill="darkgray"><path d="M31.97,18.0434a1.75,1.75,0,0,0,1.75-1.75V11.7742a1.75,1.75,0,0,0-3.5,0v4.5192A1.75,1.75,0,0,0,31.97,18.0434Z"/><path d="M16.2933,30.22h-4.519a1.75,1.75,0,0,0-1.75,1.75h0a1.75,1.75,0,0,0,1.75,1.75h4.519a1.75,1.75,0,0,0,0-3.5Z"/><path d="M3.1179,12.1811a1.75,1.75,0,0,0,1.75-1.75V5.3842H9.9148a1.75,1.75,0,0,0,0-3.5H3.1179a1.75,1.75,0,0,0-1.75,1.75v6.7969A1.75,1.75,0,0,0,3.1179,12.1811Z"/><path d="M60.8826,1.8842H54.0847a1.75,1.75,0,0,0,0,3.5h5.0479v5.0469a1.75,1.75,0,0,0,3.5,0V3.6342A1.75,1.75,0,0,0,60.8826,1.8842Z"/><path d="M9.9148,58.894H4.8679V53.8471a1.75,1.75,0,0,0-3.5,0V60.644a1.75,1.75,0,0,0,1.75,1.75H9.9148a1.75,1.75,0,0,0,0-3.5Z"/><path d="M60.8826,52.0971a1.75,1.75,0,0,0-1.75,1.75V58.894H54.0847a1.75,1.75,0,0,0,0,3.5h6.7979a1.75,1.75,0,0,0,1.75-1.75V53.8471A1.75,1.75,0,0,0,60.8826,52.0971Z"/><path d="M31.97,45.9567a1.75,1.75,0,0,0-1.75,1.75v4.5191h0a1.75,1.75,0,0,0,3.5,0h0V47.7067A1.75,1.75,0,0,0,31.97,45.9567Z"/><path d="M32,3.8561A28.1438,28.1438,0,1,0,60.1438,32,28.1437,28.1437,0,0,0,32,3.8561ZM52.2257,36.22H49.4321A17.9658,17.9658,0,0,1,36.22,49.4433v2.7825a4.25,4.25,0,0,1-8.5,0v-2.79A17.9657,17.9657,0,0,1,14.5381,36.22H11.7743a4.25,4.25,0,0,1,0-8.5h2.779A17.9652,17.9652,0,0,1,27.72,14.5645v-2.79a4.25,4.25,0,0,1,8.5,0v2.7826A17.9657,17.9657,0,0,1,49.4169,27.72h2.8088a4.25,4.25,0,0,1,0,8.5Z"/><path d="M52.2257,30.22h-4.519a1.75,1.75,0,0,0,0,3.5h4.519a1.75,1.75,0,0,0,1.75-1.75h0A1.75,1.75,0,0,0,52.2257,30.22Z"/><path d="M31.1111,26.9008h5.8818a1.75,1.75,0,0,0,0-3.5H34.0574V21.5434a1.75,1.75,0,0,0-3.5,0v1.9133a4.9541,4.9541,0,0,0,.5537,9.8787h2.6162a1.2427,1.2427,0,1,1,0,2.4853h-5.834a1.75,1.75,0,1,0,0,3.5h2.6641v1.8575a1.75,1.75,0,1,0,3.5,0V39.2873a4.7313,4.7313,0,0,0-.33-9.4519H31.1111a1.4673,1.4673,0,1,1,0-2.9346Z"/></g></svg>